<?xml version="1.0" standalone="no"?>
<!DOCTYPE svg PUBLIC "-//W3C//DTD SVG 20010904//EN"
 "http://www.w3.org/TR/2001/REC-SVG-20010904/DTD/svg10.dtd">
<svg version="1.0" xmlns="http://www.w3.org/2000/svg"
 width="108.000000pt" height="108.000000pt" viewBox="0 0 108.000000 108.000000"
 preserveAspectRatio="xMidYMid meet">

<g transform="translate(0.000000,108.000000) scale(0.100000,-0.100000)"
fill="#000000" stroke="none">
<path d="M416 1064 c-283 -68 -467 -361 -402 -638 15 -62 72 -196 83 -196 3 0
47 26 100 57 94 56 97 57 212 70 110 11 117 11 135 -7 30 -30 9 -63 -54 -86
-86 -31 -85 -44 5 -44 74 0 82 2 176 52 88 46 102 50 125 40 21 -10 25 -18 22
-44 -3 -29 -14 -39 -118 -105 l-115 -73 -152 2 c-83 2 -155 0 -159 -5 -21 -21
120 -74 221 -84 146 -13 318 50 425 157 76 76 135 195 152 303 33 220 -82 446
-279 550 -120 63 -253 81 -377 51z m293 -151 c198 -145 189 -137 166 -163 -17
-18 -20 -19 -41 -5 -13 8 -26 15 -29 15 -3 0 -5 -83 -5 -185 l0 -185 -30 0
-30 0 0 213 -1 212 -96 70 c-53 39 -99 71 -103 73 -3 1 -52 -31 -108 -73
l-102 -75 0 -210 0 -210 -30 0 -30 0 0 185 c0 102 -3 185 -7 185 -3 0 -15 -8
-25 -17 -19 -17 -20 -16 -38 7 -11 14 -15 29 -11 33 32 32 348 254 355 250 5
-4 79 -58 165 -120z m-203 -135 c86 -37 84 -46 -7 -23 -56 15 -63 15 -78 1
-14 -14 -13 -21 13 -72 27 -52 28 -60 17 -100 -6 -24 -16 -64 -23 -89 -8 -33
-8 -54 -1 -80 13 -41 2 -46 -22 -9 -13 21 -16 38 -11 78 19 150 19 149 -9 215
-21 52 -25 69 -16 88 15 32 46 30 137 -9z m186 5 c10 -9 18 -24 18 -35 0 -25
-52 -118 -67 -118 -24 0 -23 19 2 56 14 21 24 45 23 53 -4 22 -46 41 -93 42
-32 0 -36 2 -20 9 36 15 117 11 137 -7z m-14 -181 c2 -7 -11 -19 -30 -27 l-33
-16 33 7 c29 5 33 3 31 -13 -2 -10 0 -23 4 -29 10 -17 -17 -36 -54 -37 -37 -2
-51 19 -17 26 21 4 20 4 -4 6 -32 1 -44 17 -28 36 10 12 9 15 -4 15 -9 0 -16
7 -16 15 0 10 10 15 33 15 17 0 39 5 47 10 18 11 32 8 38 -8z m-130 -21 c2
-14 0 -21 -7 -17 -11 7 -31 -26 -67 -114 -13 -30 -23 -46 -24 -35 0 30 27 131
46 166 18 35 47 36 52 0z m140 -131 c0 -17 -4 -30 -11 -30 -7 0 -6 -4 3 -10
13 -8 13 -11 -1 -26 -14 -13 -20 -14 -40 -3 l-24 13 25 7 c25 7 25 7 -3 8 -24
1 -27 4 -22 21 4 11 2 20 -4 20 -26 0 -8 17 27 26 46 13 49 11 50 -26z"/>
<path d="M378 329 c-69 -7 -86 -14 -167 -64 -104 -64 -104 -66 -25 -131 44
-36 47 -37 81 -25 24 9 78 12 173 10 l138 -4 99 62 c106 66 129 86 118 103
-11 18 -32 11 -128 -40 -88 -47 -98 -50 -168 -50 -78 0 -99 9 -99 43 0 13 19
27 66 48 105 48 73 66 -88 48z"/>
</g>
</svg>
